<?xml version="1.0" encoding="utf-8"?>
<!-- Generator: Adobe Illustrator 18.1.1, SVG Export Plug-In . SVG Version: 6.00 Build 0)  -->
<svg version="1.1" id="Capa_1" xmlns="http://www.w3.org/2000/svg" xmlns:xlink="http://www.w3.org/1999/xlink" x="0px" y="0px"
	 viewBox="218 -218.3 481.3 481.3" enable-background="new 218 -218.3 481.3 481.3" xml:space="preserve">
<g>
	<g>
		<path fill="#FFFFFF" d="M583.5-35.4c-1.7-6-7.1-10.2-13.4-10.2H429v-47.1h51.7c19.7,0,35.8-16.1,35.8-35.8v-54.1
			c0-19.7-16.1-35.8-35.8-35.8H328.7c-19.7,0-35.8,16.1-35.8,35.8v54.1c0,19.7,16,35.8,35.8,35.8h51.7v47.1h-33.2
			c-6.2,0-11.7,4.2-13.4,10.2l-57.9,210.4v68.3c0,10.8,8.8,19.6,19.6,19.6h326.3c10.8,0,19.6-8.8,19.6-19.6v-68.3L583.5-35.4z
			 M432.2,23.9l4.9-12.9c1.8-4.7,6.3-7.8,11.3-7.8h20.4c5,0,9.5,3.1,11.3,7.8l4.9,12.9c1.4,3.7,0.9,7.9-1.3,11.1
			c-2.3,3.3-6,5.2-9.9,5.2h-30.2c-4,0-7.7-2-9.9-5.2C431.3,31.8,430.8,27.6,432.2,23.9z M432.2,80.3l4.9-12.9
			c1.8-4.7,6.3-7.8,11.3-7.8h20.4c5,0,9.5,3.1,11.3,7.8l4.9,12.9c1.4,3.7,0.9,7.9-1.3,11.1c-2.3,3.3-6,5.2-9.9,5.2h-30.2
			c-4,0-7.7-2-9.9-5.2C431.3,88.2,430.8,84,432.2,80.3z M432.2,136.7l4.9-12.9c1.8-4.7,6.3-7.8,11.3-7.8h20.4c5,0,9.5,3.1,11.3,7.8
			l4.9,12.9c1.4,3.7,0.9,7.9-1.3,11.1c-2.3,3.3-6,5.2-9.9,5.2h-30.2c-4,0-7.7-2-9.9-5.2S430.8,140.4,432.2,136.7z M328.7-125
			c-1.9,0-3.4-1.5-3.4-3.4v-54.1c0-1.9,1.5-3.4,3.4-3.4h151.9c1.9,0,3.4,1.5,3.4,3.4v54.1c0,1.9-1.5,3.4-3.4,3.4H328.7z M347.2,23.9
			l4.9-12.9c1.8-4.7,6.3-7.8,11.3-7.8h20.4c5,0,9.5,3.1,11.3,7.8l4.9,12.9c1.4,3.7,0.9,7.9-1.3,11.1c-2.3,3.3-6,5.2-9.9,5.2h-30.2
			c-4,0-7.7-2-9.9-5.2C346.3,31.8,345.8,27.6,347.2,23.9z M347.2,80.3l4.9-12.9c1.8-4.7,6.3-7.8,11.3-7.8h20.4c5,0,9.5,3.1,11.3,7.8
			l4.9,12.9c1.4,3.7,0.9,7.9-1.3,11.1c-2.3,3.3-6,5.2-9.9,5.2h-30.2c-4,0-7.7-2-9.9-5.2C346.3,88.2,345.8,84,347.2,80.3z
			 M347.2,136.7l4.9-12.9c1.8-4.7,6.3-7.8,11.3-7.8h20.4c5,0,9.5,3.1,11.3,7.8l4.9,12.9c1.4,3.7,0.9,7.9-1.3,11.1
			c-2.3,3.3-6,5.2-9.9,5.2h-30.2c-4,0-7.7-2-9.9-5.2C346.3,144.6,345.8,140.4,347.2,136.7z M553.8,225.5H363.5
			c-8.9,0-16.2-7.2-16.2-16.2s7.2-16.2,16.2-16.2h190.3c8.9,0,16.2,7.2,16.2,16.2S562.7,225.5,553.8,225.5z M568.7,147.9
			c-2.3,3.3-6,5.2-9.9,5.2h-30.2c-4,0-7.7-2-9.9-5.2c-2.2-3.3-2.8-7.4-1.3-11.1l4.9-12.9c1.8-4.7,6.3-7.8,11.3-7.8h20.4
			c5,0,9.5,3.1,11.3,7.8l4.9,12.9C571.5,140.4,571,144.6,568.7,147.9z M568.7,91.5c-2.3,3.3-6,5.2-9.9,5.2h-30.2c-4,0-7.7-2-9.9-5.2
			c-2.2-3.3-2.8-7.4-1.3-11.1l4.9-12.9c1.8-4.7,6.3-7.8,11.3-7.8h20.4c5,0,9.5,3.1,11.3,7.8l4.9,12.9C571.5,84,571,88.2,568.7,91.5z
			 M568.7,35.1c-2.3,3.3-6,5.2-9.9,5.2h-30.2c-4,0-7.7-2-9.9-5.2c-2.2-3.3-2.8-7.4-1.3-11.1l4.9-12.9c1.8-4.7,6.3-7.8,11.3-7.8h20.4
			c5,0,9.5,3.1,11.3,7.8l4.9,12.9C571.5,27.6,571,31.8,568.7,35.1z"/>
	</g>
</g>
</svg>
