<?xml version="1.0" encoding="utf-8"?>
<!-- Generator: Adobe Illustrator 18.1.1, SVG Export Plug-In . SVG Version: 6.00 Build 0)  -->
<svg version="1.1" id="Capa_1" xmlns="http://www.w3.org/2000/svg" xmlns:xlink="http://www.w3.org/1999/xlink" x="0px" y="0px"
	 viewBox="249 -249.5 543.5 543.5" enable-background="new 249 -249.5 543.5 543.5" xml:space="preserve">
<g>
	<path fill="#FFFFFF" d="M788-59.4c-4.7-3.1-11-1.9-14.1,2.8c-5.3,8-12.7,11.5-19,12.9c-0.1-11.9-5.8-24.3-16.3-34.8
		c-10.1-10.1-24.7-12.1-34.7-4.8c-7.5,5.4-13.5,17.5-5.4,33.6c5,10,14.3,18.1,25.5,22.8c-2.1,1.5-4.6,3-7.4,4.4
		c-6.1,3.1-12.4,4.9-18.4,5.9c-14.7-30-41.2-55.6-75.3-73.7c-12.4,29.2-41.4,49.7-75.1,49.7c-43.3,0-78.7-33.9-81.3-76.4
		c-4.2,0.4-8.4,0.9-12.5,1.4c-25.5-16.5-73-36.9-120.4-33.7c2.2,19.7,14.3,45,29.9,63.3c-30.2,18.7-49.7,44.1-59.5,73.6
		c-11.5,5-23.9,8.2-37.8,9.2C256-2.6,248.3,6.1,249,16.2c1.9,26.2,9.6,70.7,40.3,82.5c5.7,2.2,14.9,3.5,25.8,4.2
		c13,21.2,32.1,39.9,55.6,54.8c-3.9,19.7-8.8,39.6-14.8,59.6c-2.6,8.7,4,17.4,13,17.4h57.1c5.6,0,10.8-3.5,12.8-8.8
		c4.5-12.1,8.3-24.6,11.5-37.2c17,3.4,34.7,5.2,53.1,5.2c21.3,0,41.9-2.4,61.3-6.9c-2.5,10.1-5.2,20.2-8.3,30.4
		c-2.6,8.7,4,17.4,13,17.4h57.1c5.7,0,10.8-3.5,12.8-8.8c10.2-27.5,16.9-56.4,21-86.3c31.4-27.4,50.4-63.1,50.4-102.1
		c0-12-1.8-23.6-5.2-34.8c6.6-1.5,13.3-3.7,20-7c11-5.5,18-11.9,22.3-18c17.6-0.4,33.3-8.7,42.8-22.8C794-49.9,792.7-56.2,788-59.4z
		 M381.1-10.1c-9.4,0-17-7.6-17-17s7.6-17,17-17c9.4,0,17,7.6,17,17S390.5-10.1,381.1-10.1z M716.7-58.8c-2.1-4.1-2-7.1-0.9-7.9
		c0.4-0.3,1.1-0.5,1.9-0.5c1.7,0,4.1,0.9,6.4,3.2c6.2,6.2,9.9,13.1,10.3,19.3C726.4-47.4,719.8-52.5,716.7-58.8z M547.7-190.3
		c-37.6,0-68,30.4-68,68c0,37.6,30.4,68,68,68s68-30.4,68-68S585.3-190.3,547.7-190.3z M569.5-136.2c-3.5,1.2-7.4-0.7-8.6-4.3
		c-1.1-3.4-5.2-7.3-13.2-7.3c-6.4,0-10.1,4.2-10.6,8.4c-0.5,5.2,3.9,9.3,11.9,10.9c18.3,3.8,23.7,16.2,22.7,25.6
		c-1,9.5-8,17-17.3,19.5v5.7c0,3.8-3,6.8-6.8,6.8s-6.8-3-6.8-6.8V-83c-10.9-2.2-17.2-9.4-19.3-15.8c-1.2-3.6,0.7-7.4,4.3-8.6
		c3.6-1.2,7.4,0.7,8.6,4.3c1.1,3.4,5.2,7.3,13.2,7.3c6.4,0,10.1-4.2,10.6-8.4c0.5-5.2-3.9-9.3-11.9-10.9
		c-18.3-3.8-23.7-16.2-22.7-25.6c1-9.5,8-17,17.3-19.5v-5.7c0-3.8,3-6.8,6.8-6.8s6.8,3,6.8,6.8v5.4c10.9,2.2,17.1,9.4,19.3,15.8
		C575-141.2,573.1-137.4,569.5-136.2z"/>
</g>
</svg>
