<?xml version="1.0" encoding="utf-8"?>
<!-- Generator: Adobe Illustrator 18.1.1, SVG Export Plug-In . SVG Version: 6.00 Build 0)  -->
<svg version="1.1" id="Capa_1" xmlns="http://www.w3.org/2000/svg" xmlns:xlink="http://www.w3.org/1999/xlink" x="0px" y="0px"
	 viewBox="0 0 45 45" enable-background="new 0 0 45 45" xml:space="preserve">
<g>
	<g>
		<path fill="#FFFFFF" d="M24.7,8c2.2,0.3,4.1-1.3,4.4-3.5c0.2-2.2-1.3-4.2-3.5-4.4c-2.2-0.3-4.1,1.3-4.4,3.5
			C20.9,5.8,22.5,7.7,24.7,8z"/>
		<path fill="#FFFFFF" d="M18.8,19.5l3.4-8.4l0.2,0.4c0.1,0.1,0.2,0.2,0.3,0.2c0,0,0,0,0.1,0c0.1,0,0.2,0,0.3-0.1l0.9-1
			c0.1-0.1,0.1-0.3,0.1-0.4C24.1,10.1,24,10,23.8,10l-1.2-0.1L22,8.2C22,8,21.8,7.9,21.6,7.9c-0.2,0-0.3,0.1-0.4,0.2l-1.2,2.7
			c-0.1,0.1,0,0.3,0.1,0.4c0.1,0.1,0.2,0.1,0.3,0.1c0,0,0.1,0,0.1,0l1.1-0.6l-4.4,8.3L18.8,19.5z"/>
		<path fill="#FFFFFF" d="M32.8,16.3c-1.6,0.1-3.3,0.2-4.9,0.4c-0.7-1.7-1.4-4-2.1-5.2c-0.5-0.9-1.1-0.8-1.4-0.2
			c-1.3,2.3-4.8,9.3-4.8,9.3l-3.6-1l4.6-11.5c-0.2-0.1-0.8-0.4-1.7-0.1L5.8,11.2c-1,0.2-1.6,1.2-1.3,2.2c0.2,1,1.2,1.6,2.2,1.4
			l8.6-2c-1.3,2.3-2.5,4.5-3.6,6.8c0,0-6.3,10.3-5.3,10.7c1,0.4,5.1-4.3,5.1-4.3v16.5c0,1.4,1.1,2.5,2.4,2.5c1.3,0,2.4-1.1,2.4-2.5
			c0,0-0.9-11.7,2.5-18.7c3.4-7.1,4.7-9,4.7-9s1.3,3.1,1.8,4.4c0.2,0.5,0.6,1.5,1.8,1.4c2.1-0.2,3.7-0.3,5.8-0.5
			C35.2,19.9,35.2,16.1,32.8,16.3z"/>
		<path fill="#FFFFFF" d="M30.4,14.7c-0.3,0-0.5,0.2-0.5,0.5c0,0.3,0.2,0.5,0.5,0.5h9.7c0.3,0,0.5-0.2,0.5-0.5
			c0-0.3-0.2-0.5-0.5-0.5H30.4z"/>
		<path fill="#FFFFFF" d="M33.8,13.9h2.9c0.2,0,0.5-0.2,0.5-0.4l0.2-4.2c0-0.1,0-0.3-0.1-0.3c-0.1-0.1-0.2-0.1-0.3-0.1h-3.3
			c-0.1,0-0.2,0.1-0.3,0.1c-0.1,0.1-0.1,0.2-0.1,0.3l0.2,4.2C33.4,13.7,33.6,13.9,33.8,13.9z M36.9,9.3l0,0.8l-3.2,0l0-0.8H36.9z"/>
	</g>
</g>
</svg>
