<?xml version="1.0" encoding="utf-8"?>
<!-- Generator: Adobe Illustrator 18.1.1, SVG Export Plug-In . SVG Version: 6.00 Build 0)  -->
<svg version="1.1" id="Capa_1" xmlns="http://www.w3.org/2000/svg" xmlns:xlink="http://www.w3.org/1999/xlink" x="0px" y="0px"
	 viewBox="0 0 45 45" enable-background="new 0 0 45 45" xml:space="preserve">
<g>
	<g>
		<path fill="#FFFFFF" d="M2.2,43.7c0.4,0.4,1.4,0.9,2.1,0.9c0.2,0,0.4-0.1,0.6-0.2l16.5-17.4l0.5,0.6l0.5,0.6l15.7,16.8
			c0.4,0.4,2.7-1.3,3.7-2.3l0.4-0.4c1-1,2.7-3.3,2.3-3.7L27.6,22.7L27,22.2l-0.6-0.5l1.1-1.1l1.8-0.8l1.8-0.8l2.2-1
			c1.6-0.4,3.3-1.5,4.8-3c5.8-5.8,7-7.7,6.1-9.5l-7.5,7.2c-0.2,0.2-0.4,0.3-0.6,0.3c-0.2,0-0.3-0.1-0.5-0.2l-0.2-0.2
			c-0.1-0.1-0.2-0.3-0.2-0.5c0-0.2,0.1-0.4,0.3-0.6l6.9-8.1c-0.2-0.2-0.4-0.4-0.6-0.6c-0.3-0.3-0.6-0.6-0.9-0.9L33,8.7
			c-0.1,0.1-0.4,0.2-0.6,0.2c-0.2,0-0.3-0.1-0.5-0.2l-0.2-0.2c-0.1-0.1-0.2-0.3-0.2-0.5c0-0.2,0.1-0.4,0.3-0.6l7-7.3
			c-2.1-0.7-4,1.2-9.8,7c-1.5,1.5-2.5,3-2.7,4.5c-0.3,0.8-0.7,1.8-1.1,2.9c-0.2,0.5-0.4,1.1-0.6,1.6c-0.1,0.4-0.3,0.8-0.4,1.2
			l0.2,0.1l1.7,1.4l-0.8,1.8l-0.4,1l-1.2,2.9L23,26.3L21.4,27l-0.1,0l-2.1,1l-2.7-3l-16,15.2c-0.5,0.5,0.2,2.1,0.7,2.7L2.2,43.7z
			 M37.7,38c0.5-0.5,1.4-0.5,1.9,0s0.5,1.4,0,1.9c-0.5,0.5-1.4,0.5-1.9,0C37.2,39.4,37.2,38.6,37.7,38z M29,27.3
			c0.5,0.5,0.5,1.4,0,1.9c-0.5,0.5-1.4,0.5-1.9,0c-0.5-0.5-0.5-1.4,0-1.9C27.6,26.8,28.4,26.8,29,27.3z M3.9,39.7
			c0.4-0.4,1.2-0.4,1.6,0s0.4,1.2,0,1.6s-1.2,0.4-1.6,0C3.4,40.9,3.4,40.1,3.9,39.7z"/>
		<path fill="#FFFFFF" d="M16.1,23.3l0.5,0.6l0.5,0.6l2.3,2.6l1.4-0.6l1.7-0.7l2-4.7l0.4-0.9l0.4-1l-1.2-1L23.9,18l-0.6-0.5L22.7,17
			L3,0.7C2.6,5.5,4,9.3,4.2,9.8L16.1,23.3z"/>
	</g>
</g>
</svg>
